<?xml version="1.0" encoding="UTF-8"?>
<!DOCTYPE svg PUBLIC "-//W3C//DTD SVG 1.1//EN" "http://www.w3.org/Graphics/SVG/1.1/DTD/svg11.dtd">
<!-- Creator: CorelDRAW X8 -->
<svg xmlns="http://www.w3.org/2000/svg" xml:space="preserve" width="44.5966mm" height="7.0841mm" version="1.1" style="shape-rendering:geometricPrecision; text-rendering:geometricPrecision; image-rendering:optimizeQuality; fill-rule:evenodd; clip-rule:evenodd"
viewBox="0 0 15534 2468"
 xmlns:xlink="http://www.w3.org/1999/xlink">
 <defs>
  <style type="text/css">
   <![CDATA[
    .fil1 {fill:#FFCC29}
    .fil0 {fill:#FEFEFE;fill-rule:nonzero}
   ]]>
  </style>
 </defs>
 <g id="Camada_x0020_1">
  <metadata id="CorelCorpID_0Corel-Layer"/>
  <path class="fil0" d="M3221 1373l298 0 0 374c0,154 57,267 171,336 113,69 299,104 555,104 252,0 424,-43 516,-130 92,-87 138,-252 138,-497l0 -1553 298 0 0 1633c0,295 -78,507 -233,636 -155,128 -412,192 -774,192 -328,0 -572,-59 -731,-176 -158,-117 -238,-297 -238,-537l0 -382zm2626 -819l289 0 0 1188c0,178 43,298 126,361 84,62 251,93 501,93 251,0 418,-31 502,-93 84,-63 126,-183 126,-361l0 -1188 289 0 0 1264c0,228 -72,392 -216,493 -144,102 -378,152 -705,152 -324,0 -557,-50 -699,-150 -142,-100 -213,-264 -213,-495l0 -1264zm2310 1614l141 -243c128,85 267,152 418,199 151,48 295,72 433,72 165,0 299,-33 400,-101 102,-67 152,-153 152,-258 0,-107 -47,-184 -139,-236 -93,-51 -239,-80 -439,-86 -338,-4 -571,-43 -697,-117 -126,-74 -189,-196 -189,-367 0,-159 69,-288 208,-385 139,-97 325,-145 558,-145 160,0 314,22 465,67 149,45 294,112 433,200l-146 240c-115,-78 -240,-138 -374,-181 -133,-42 -261,-64 -382,-64 -141,0 -255,25 -340,74 -85,50 -128,113 -128,193 0,82 43,141 129,175 86,35 236,52 449,52 296,0 518,50 668,150 151,100 227,249 227,446 0,175 -77,320 -229,437 -153,115 -351,173 -595,173 -180,0 -358,-26 -536,-77 -177,-51 -339,-124 -487,-218zm2826 237l0 -2122 -1010 0 0 -276 2318 0 0 276 -1010 0 0 2122 -298 0zm1301 -716l725 0 -360 -711 -365 711zm-673 716l944 -1855 183 0 951 1855 -310 0 -241 -471 -980 0 -240 471 -307 0zm2006 0l779 -930 -768 -925 349 0 598 713 594 -713 356 0 -772 916 781 939 -351 0 -608 -726 -615 726 -343 0z"/>
  <polygon class="fil1" points="1580,0 2002,0 2002,1898 1580,1898 "/>
  <polygon class="fil1" points="816,463 1238,463 1238,1898 816,1898 "/>
  <polygon class="fil1" points="0,845 422,845 422,1898 0,1898 "/>
 </g>
</svg>
